<?xml version="1.0" encoding="UTF-8" standalone="no"?>
<!-- Created with Inkscape (http://www.inkscape.org/) -->

<svg
   width="200mm"
   height="91.585999mm"
   viewBox="0 0 200.00001 91.585999"
   version="1.1"
   id="svg1"
   inkscape:version="1.4.2 (ebf0e940, 2025-05-08)"
   sodipodi:docname="logo.svg"
   xmlns:inkscape="http://www.inkscape.org/namespaces/inkscape"
   xmlns:sodipodi="http://sodipodi.sourceforge.net/DTD/sodipodi-0.dtd"
   xmlns="http://www.w3.org/2000/svg"
   xmlns:svg="http://www.w3.org/2000/svg">
  <sodipodi:namedview
     id="namedview1"
     pagecolor="#ffffff"
     bordercolor="#000000"
     borderopacity="0.25"
     inkscape:showpageshadow="2"
     inkscape:pageopacity="0.0"
     inkscape:pagecheckerboard="0"
     inkscape:deskcolor="#d1d1d1"
     inkscape:document-units="mm"
     inkscape:zoom="0.46887539"
     inkscape:cx="688.88239"
     inkscape:cy="243.13496"
     inkscape:window-width="1440"
     inkscape:window-height="847"
     inkscape:window-x="0"
     inkscape:window-y="25"
     inkscape:window-maximized="1"
     inkscape:current-layer="g1"
     showgrid="false" />
  <defs
     id="defs1" />
  <g
     inkscape:label="Layer 1"
     inkscape:groupmode="layer"
     id="layer1">
    <g
       id="g1"
       transform="matrix(1.0361251,0,0,1.03621,5.9386986,-12.729478)"
       style="stroke-width:0.965095;fill:#1a1a1a;stroke:#1a1a1a">
      <path
         id="rect57-5"
         style="fill:#ffffff;fill-rule:evenodd;stroke:#ffffff;stroke-width:0.193019;stroke-linejoin:round"
         d="M 78.942671,86.877102 H 181.1682 l 2.19009,-2.574701 h 3.84024 v 4.764715 L 78.942536,89.066917 Z"
         sodipodi:nodetypes="csscccc"
         inkscape:label="rect2" />
      <path
         id="rect57"
         style="fill:#ffffff;fill-rule:evenodd;stroke:#ffffff;stroke-width:0.193019;stroke-linejoin:round"
         d="m 6.7683645,86.87761 50.2756985,-5.02e-4 2.06e-4,2.18991 -50.2759045,1.02e-4 z"
         sodipodi:nodetypes="ccccc"
         inkscape:label="rect1" />
      <path
         id="path8-2-7-4-5-3-2-3-8"
         style="fill:#ffffff;fill-rule:nonzero;stroke:#ffffff;stroke-width:0.386038;stroke-linejoin:round;stroke-dasharray:none"
         inkscape:label="laser"
         d="M 9.5506246,87.088751 C 8.6809621,86.485934 8.7738709,85.271939 9.290377,84.46843 9.9657699,83.141969 10.429909,82.762309 11.45692,81.712612 10.156209,82.987536 9.4833224,83.806468 7.6505688,84.269173 6.6093432,84.457771 5.8164923,83.533559 5.6134563,82.600221 5.1529162,81.184708 5.2125766,81.501469 5.196399,80.033102 5.178327,81.854303 5.281763,81.995757 4.313068,83.618717 3.7102407,84.488246 2.496032,84.395243 1.692391,83.878762 0.36570485,83.203353 -1.3061027,81.447301 -2.3560422,80.42037 c 1.2751843,1.300601 3.3863464,3.26536 3.8492626,5.097873 0.1887341,1.041106 -0.73560466,1.833756 -1.66907392,2.036717 -1.41569188,0.460361 -2.92605298,0.401116 -4.39462598,0.417227 1.4679187,0.01588 2.9774137,-0.04429 4.39232311,0.416465 0.93445578,0.202058 1.86040379,0.994809 1.67159449,2.03688 -0.4614366,1.833084 -1.28276803,2.504611 -2.5568616,3.805827 1.30071519,-1.274951 1.97359872,-2.09388 3.8063436,-2.556589 1.0412269,-0.188607 1.8340694,0.735608 2.037113,1.668949 0.4605401,1.415513 0.4008885,5.666429 0.417065,7.134891 0.015712,-1.46761 -0.04406,-5.717664 0.4166747,-7.132332 0.2020061,-0.934332 0.9948238,-1.860124 2.0370753,-1.671251 1.8333416,0.461547 1.8590029,0.63694 3.1605379,1.910886 -1.2751776,-1.300662 -1.4482182,-1.327687 -1.9111316,-3.160204 -0.1887347,-1.041104 0.7356042,-1.833753 1.6690736,-2.036707 1.41569,-0.460363 2.012406,-0.400956 3.480989,-0.417022 -1.82145,-0.01818 -2.876446,0.08543 -4.4996924,-0.883229 z m 0.00672,1.733055 C 8.9846085,87.932136 9.5351258,86.8461 10.319866,86.30137 11.451568,85.334289 13.7139,84.461979 15.06452,83.885124 13.37482,84.565339 10.751497,85.763616 8.8811518,85.489884 7.8469973,85.26575 7.468251,84.108542 7.6379199,83.168568 7.7542397,81.6846 9.0866601,78.624378 9.6337522,77.261598 8.9199734,78.937255 7.5628242,82.483202 6.0466725,83.612001 5.1569102,84.1847 4.070723,83.634213 3.525944,82.849574 2.5587679,81.717979 1.3367384,78.612038 0.75978799,77.261564 c 0.68029341,1.689491 2.22835561,5.156352 1.95461431,7.026488 -0.224129,1.03407 -1.3814997,1.412731 -2.3216009,1.243089 -1.4841397,-0.116331 -4.5448655,-1.448514 -5.9078205,-1.995512 1.3501161,0.576266 4.4557326,1.797837 5.58658247,2.764857 0.78598931,0.544206 1.33801433,1.630883 0.76470744,2.521395 -1.12794261,1.517 -4.67609731,2.871859 -6.35126061,3.586552 1.6897079,-0.68024 5.15712918,-2.228079 7.0274752,-1.954354 1.0341559,0.224127 1.4128884,1.381339 1.2432309,2.321318 -0.1163195,1.483965 -0.050192,1.168495 -0.5973187,2.53136 0.5762664,-1.349875 0.3994948,-1.07929 1.3666125,-2.210008 0.5442608,-0.785922 1.6310864,-1.337906 2.5217076,-0.764642 1.5171229,1.127859 1.8233367,2.14364 2.538176,3.818588 -0.6802673,-1.689547 -1.1794233,-2.624641 -0.9056815,-4.494778 0.2241278,-1.034064 1.3815042,-1.412722 2.3216018,-1.24308 1.484138,0.116331 4.544864,1.448511 5.907814,1.995551 C 14.23283,91.694704 10.686304,90.33779 9.557389,88.821806 Z"
         sodipodi:nodetypes="ccccccccccccccccccccccccccccccccccccccccccccccccccc" />
      <path
         style="font-size:50.8px;line-height:0.7;font-family:Charter;-inkscape-font-specification:'Charter, Normal';fill:#ffffff;fill-rule:evenodd;stroke:#ffffff;stroke-width:0.193019;stroke-linejoin:round;stroke-dasharray:none"
         d="m 1.9041183,12.381066 h 2.3522454 v 33.62117 c 2.4326639,-1.347695 4.4129722,-2.30315 5.9409273,-2.866367 1.548059,-0.563216 2.895071,-0.844825 4.041037,-0.844825 2.714131,0 4.78491,0.804594 6.21234,2.413783 1.427431,1.609189 2.141146,3.942514 2.141146,6.999973 v 17.409411 l 1.055495,0.995685 3.256956,0.301724 v 2.23275 H 13.454246 v -2.23275 l 2.895072,-0.301724 1.055494,-0.995685 V 52.76083 c 0,-2.313209 -0.482512,-3.95257 -1.447536,-4.918084 -0.965023,-0.965513 -2.563344,-1.44827 -4.794963,-1.44827 -0.985127,0 -2.0506742,0.170977 -3.1966396,0.51293 -1.1459654,0.321837 -2.3824023,0.824708 -3.7093097,1.508615 v 20.69819 l 1.0856514,0.995685 2.9252287,0.301724 v 2.23275 H -5.2732455 v -2.23275 l 3.3474263,-0.301724 1.05549366,-0.995685 V 16.514669 H -5.6351303 V 14.583642 Z M 48.647457,66.971978 V 56.079781 c -5.166899,1.428156 -8.564587,2.735621 -10.193064,3.922399 -1.608373,1.186777 -2.41256,2.745678 -2.41256,4.676704 0,1.548845 0.442303,2.785909 1.326909,3.711193 0.90471,0.905168 2.110989,1.357753 3.618838,1.357753 0.965024,0 2.07078,-0.231321 3.31727,-0.693964 1.266593,-0.462642 2.714129,-1.156604 4.342607,-2.081888 z m 0,2.081888 c -1.990361,1.367811 -3.819885,2.383611 -5.488573,3.047402 -1.648583,0.643675 -3.196641,0.965513 -4.644177,0.965513 -2.392454,0 -4.312451,-0.724134 -5.759986,-2.172405 -1.42743,-1.44827 -2.141146,-3.359181 -2.141146,-5.732736 0,-2.635045 1.0756,-4.706876 3.226798,-6.215491 2.171303,-1.508614 7.106998,-3.188206 14.807084,-5.038772 v -1.961199 c 0,-2.594817 -0.422198,-4.395098 -1.266593,-5.40084 -0.844397,-1.005744 -2.312038,-1.508615 -4.402923,-1.508615 -0.78408,0 -1.55811,0.08046 -2.322087,0.241378 -0.763978,0.16092 -1.558111,0.402299 -2.382403,0.724135 v 5.189634 h -4.252136 c -0.743872,0 -1.256541,-0.130747 -1.538007,-0.39224 -0.26136,-0.281607 -0.39204,-0.784479 -0.39204,-1.508615 0,-2.011485 1.156017,-3.681018 3.468054,-5.008599 2.33214,-1.327582 5.337787,-1.991372 9.016941,-1.991372 3.23685,0 5.589095,0.704021 7.056736,2.112062 1.467639,1.40804 2.20146,3.670961 2.20146,6.788764 v 17.922341 l 1.055494,0.995685 3.256955,0.301724 v 2.23275 h -8.685212 z m 21.592405,0 c 1.005233,0.341953 1.940101,0.59339 2.8046,0.754308 0.884606,0.16092 1.708897,0.241379 2.472873,0.241379 3.055906,0 5.528784,-1.136491 7.418627,-3.40947 1.889841,-2.293094 2.834756,-5.32038 2.834756,-9.08186 0,-3.47987 -0.824298,-6.245663 -2.47288,-8.297379 -1.628474,-2.051716 -3.809835,-3.077574 -6.544066,-3.077574 -0.985127,0 -2.000413,0.170976 -3.045855,0.51293 -1.045444,0.34195 -2.201461,0.874995 -3.468055,1.599131 z m -9.499452,20.013152 6e-4,-2.189917 h 2.703477 L 65.05286,85.175927 V 46.756544 h -4.31245 v -1.931027 l 7.177365,-2.202578 h 2.322087 v 3.379297 c 1.688793,-1.267235 3.267007,-2.202577 4.734648,-2.806023 1.487745,-0.603446 2.945333,-0.90507 4.372767,-0.90507 3.457999,0 6.292757,1.347596 8.504269,4.042989 2.231622,2.695391 3.347426,6.175261 3.347426,10.439612 0,4.847682 -1.387227,8.739907 -4.161668,11.676677 -2.774443,2.916656 -6.453593,4.374981 -11.037457,4.374981 -0.784081,0 -1.648581,-0.05028 -2.5935,-0.150861 -0.944919,-0.08046 -1.990363,-0.211207 -3.136327,-0.39224 l -0.03016,12.893626 1.698843,1.701174 h 3.307757 l -5.4e-4,2.189917 z M 95.179696,72.643841 V 70.41162 l 3.347427,-0.301724 1.055489,-0.995685 V 46.756544 h -4.402916 v -1.931027 l 7.177354,-2.202578 h 2.35225 v 3.379297 c 2.47288,-1.36781 4.46324,-2.323266 5.97108,-2.866367 1.50785,-0.563216 2.83476,-0.844825 3.98073,-0.844825 2.69402,0 4.75476,0.804594 6.18218,2.413783 1.42743,1.609189 2.14114,3.942514 2.14114,6.999973 v 17.409411 l 1.0555,0.995685 3.31727,0.301724 v 2.23275 h -13.51034 v -2.23275 l 2.95539,-0.301724 1.05549,-0.995685 V 52.76083 c 0,-2.313209 -0.48251,-3.95257 -1.44753,-4.918084 -0.9449,-0.965513 -2.54324,-1.44827 -4.79497,-1.44827 -0.98513,0 -2.05067,0.170977 -3.19663,0.51293 -1.14597,0.321837 -2.38239,0.824708 -3.70931,1.508615 v 20.69819 l 1.05549,0.995685 2.95539,0.301724 v 2.23275 z M 149.04008,66.971978 V 56.079781 c -5.1669,1.428156 -8.5646,2.735621 -10.19308,3.922399 -1.60837,1.186777 -2.41255,2.745678 -2.41255,4.676704 0,1.548845 0.4423,2.785909 1.3269,3.711193 0.90471,0.905168 2.111,1.357753 3.61883,1.357753 0.96502,0 2.07078,-0.231321 3.31728,-0.693964 1.26661,-0.462642 2.71414,-1.156604 4.34262,-2.081888 z m 0,2.081888 c -1.99037,1.367811 -3.81989,2.383611 -5.48858,3.047402 -1.64858,0.643675 -3.19663,0.965513 -4.64418,0.965513 -2.39245,0 -4.31244,-0.724134 -5.75999,-2.172405 -1.42743,-1.44827 -2.14114,-3.359181 -2.14114,-5.732736 0,-2.635045 1.0756,-4.706876 3.2268,-6.215491 2.17131,-1.508614 7.107,-3.188206 14.80709,-5.038772 v -1.961199 c 0,-2.594817 -0.42221,-4.395098 -1.26661,-5.40084 -0.84438,-1.005744 -2.31203,-1.508615 -4.40292,-1.508615 -0.78407,0 -1.5581,0.08046 -2.32209,0.241378 -0.76398,0.16092 -1.55811,0.402299 -2.3824,0.724135 v 5.189634 h -4.25213 c -0.74387,0 -1.25655,-0.130747 -1.53801,-0.39224 -0.26136,-0.281607 -0.39205,-0.784479 -0.39205,-1.508615 0,-2.011485 1.15605,-3.681018 3.46807,-5.008599 2.33212,-1.327582 5.33779,-1.991372 9.01694,-1.991372 3.23683,0 5.58909,0.704021 7.05673,2.112062 1.46764,1.40804 2.20146,3.670961 2.20146,6.788764 v 17.922341 l 1.0555,0.995685 3.25695,0.301724 v 2.23275 h -8.68521 z m 34.31866,-1.900853 v -21.21112 c -1.12587,-0.321838 -2.14115,-0.563217 -3.04587,-0.724137 -0.8846,-0.181033 -1.67873,-0.27155 -2.3824,-0.27155 -3.15642,0 -5.70973,1.166663 -7.65986,3.499985 -1.93005,2.333325 -2.89509,5.410899 -2.89509,9.232721 0,3.560331 0.83435,6.38647 2.50304,8.478415 1.68879,2.091945 3.9405,3.137917 6.75515,3.137917 1.08568,0 2.18137,-0.170975 3.28713,-0.512927 1.12586,-0.362068 2.27182,-0.905169 3.4379,-1.629304 z m 0,-50.638344 h -4.73466 v -1.931027 l 5.6092,-2.202576 h 2.96545 c 0,0 -1.8e-4,42.753317 -2e-4,56.733145 -1e-5,5.038773 0,19.866442 0,19.866442 h -3.84024 l 4.5e-4,-19.534547 c -1.60837,1.287351 -3.17655,2.23275 -4.7045,2.836195 -1.52796,0.603447 -3.12626,0.90517 -4.79495,0.90517 -3.458,0 -6.31287,-1.347696 -8.5646,-4.043088 -2.23161,-2.715506 -3.34743,-6.18532 -3.34743,-10.409439 0,-4.908027 1.46764,-8.880712 4.40293,-11.918056 2.95539,-3.057457 6.79538,-4.586189 11.51996,-4.586189 0.8243,0 1.69886,0.06035 2.62367,0.181034 0.92481,0.120691 1.87978,0.291666 2.86492,0.51293 z"
         id="text21"
         aria-label="häpnad"
         sodipodi:nodetypes="ccccsssccccccccssscccccccccccccccccscsccccscsccssssccscscsssccccccccscscsscccccccccccccscscsccccccccccccccccccsssccccccccscsccccccccccscsccccscsccssssccscscssscccccccccscscscccccccscccsscscsscc"
         inkscape:label="text" />
    </g>
  </g>
</svg>
